<svg width="120" height="121" viewBox="0 0 120 121" fill="none" xmlns="http://www.w3.org/2000/svg">
<rect y="0.0751953" width="120" height="120" rx="60" fill="#E6F9F8"/>
<path d="M106.869 33.6098L46.8691 93.6098C46.3466 94.1342 45.7256 94.5502 45.0419 94.8342C44.3581 95.1181 43.6251 95.2642 42.8848 95.2642C42.1444 95.2642 41.4114 95.1181 40.7277 94.8342C40.0439 94.5502 39.423 94.1342 38.9004 93.6098L12.6504 67.3598C12.1271 66.8365 11.7121 66.2154 11.4289 65.5317C11.1457 64.8481 11 64.1154 11 63.3754C11 62.6354 11.1457 61.9027 11.4289 61.2191C11.7121 60.5354 12.1271 59.9143 12.6504 59.391C13.1736 58.8678 13.7948 58.4527 14.4784 58.1696C15.1621 57.8864 15.8948 57.7406 16.6348 57.7406C17.3747 57.7406 18.1074 57.8864 18.7911 58.1696C19.4747 58.4527 20.0959 58.8678 20.6191 59.391L42.8894 81.6613L98.9098 25.6504C99.9665 24.5937 101.4 24 102.894 24C104.389 24 105.822 24.5937 106.879 25.6504C107.935 26.7071 108.529 28.1403 108.529 29.6348C108.529 31.1292 107.935 32.5624 106.879 33.6191L106.869 33.6098Z" fill="#00958D"/>
</svg>
